<svg xmlns="http://www.w3.org/2000/svg" xmlns:xlink="http://www.w3.org/1999/xlink" viewBox="0 0 32 32" version="1.1" role="img" class="at-icon at-icon-pinterest" style="fill: rgb(255, 255, 255);"><title id="at-svg-pinterest_share-1">Share on Pinterest</title><g><path d="M7 13.252c0 1.81.772 4.45 2.895 5.045.074.014.178.04.252.04.49 0 .772-1.27.772-1.63 0-.428-1.174-1.34-1.174-3.123 0-3.705 3.028-6.33 6.947-6.33 3.37 0 5.863 1.782 5.863 5.058 0 2.446-1.054 7.035-4.468 7.035-1.232 0-2.286-.83-2.286-2.018 0-1.742 1.307-3.43 1.307-5.225 0-1.092-.67-1.977-1.916-1.977-1.692 0-2.732 1.77-2.732 3.165 0 .774.104 1.63.476 2.336-.683 2.736-2.08 6.814-2.08 9.633 0 .87.135 1.728.224 2.6l.134.137.207-.07c2.494-3.178 2.405-3.8 3.533-7.96.61 1.077 2.182 1.658 3.43 1.658 5.254 0 7.614-4.77 7.614-9.067C26 7.987 21.755 5 17.094 5 12.017 5 7 8.15 7 13.252z" fill-rule="evenodd"></path></g></svg>
